<?xml version="1.0" standalone="yes"?>
<svg xmlns="http://www.w3.org/2000/svg" width="512" height="512">
<path style="fill:#01a9f3; stroke:none;" d="M0 0L0 366L0 512L512 512L512 0L146 0L0 0z"/>
<path style="fill:#feffff; stroke:none;" d="M232 47L231.917 48.5L231.583 50.0555L231 52L230.333 54L230 55L229.417 57L229.222 58L229.083 59L229 61L229 63L229 65L229 66L229.028 68L229.083 69L229.472 71L230.167 73L230.556 74L230.861 75L231.611 77L232.639 79L233.194 80L234.472 82L236.083 84L237.028 85L239 87L240 88L242 89.9167L244 91.5278L246 92.7222L247 93.1667L248 93.6111L249 93.9722L250 94.3333L252 95L254 95.6667L255 96L257 96.5833L259 96.9167L260 96.9722L262 97L263 97L265 96.9167L267 96.5833L268 96.3055L269 96L271 95.3333L273 94.6667L274 94.3333L276 93.6111L277 93.1667L278 92.7222L280 91.5278L282 89.9167L284 88L285 87L286 86L287.917 84L289.528 82L290.167 81L290.806 80L291.917 78L292.389 77L293.111 75L293.389 74L293.694 73L294.306 71L294.583 70L294.917 68L295 66L295 65L295 63L295 61L294.917 59L294.778 58L294.583 57L294 55L293.667 54L293 52L292.417 50.0555L292.083 48.5L292 47L290.778 46.2222L290.417 45.6945L289.778 44.8889L288.528 43L286.917 41L285 39.0833L283 37.4722L282 36.8333L280 35.6111L278 34.3889L276 33.2778L274 32.4445L273 32.1667L272 31.8611L271 31.6389L269 31.1389L267 30.6389L266 30.3889L264 30.0833L262 30L260 30.0833L258 30.3889L257 30.6389L255 31.1389L253 31.6389L252 31.8611L251 32.1667L250 32.4445L248 33.2778L246 34.3889L245 35L243 36.1945L241 37.4722L239.028 39.0833L238.083 40.0278L236.417 42L235 43.9722L234.361 44.8889L233.639 45.6945L233.25 46.2222L232 47M295 206L296.5 205.667L297.056 205.361L298.056 204.917L299 204.361L301 203.25L302 202.75L304 201.611L306 200.306L307 199.583L308.917 197.917L309.75 196.972L310.528 196L311.75 194L312.222 193L312.75 192L313.528 190L313.917 188L313.972 187L314 185L314 184L314 182L314 181L314.083 179L314.222 178L314.611 176L314.778 175L314.917 174L315 172L315 171L315 170L315 167L315 155L315 154L315 144L315 142L315 141L314.972 139L314.917 138L314.583 136L314 134L313.694 133L313.389 132L312.833 130L312.556 129L311.75 127L311.222 126L310.778 125L310.222 124L309.75 123L308.528 121L307.778 120L306.194 118L304.611 116L302.917 114.083L301.972 113.222L301 112.389L299 110.778L297 109.083L296 108.306L294 107.028L293 106.5L291 105.583L289 104.806L288 104.417L287 104L285 103.278L284 103.028L282 102.611L281 102.389L279 102L277 101.611L276 101.389L274 101.083L273 101.028L271 101L269 101L262 101L255 101L253 101L251 101.028L250 101.083L248 101.389L247 101.611L245 102L243 102.389L241 102.806L239 103.222L238 103.472L237 103.833L236 104.194L234 105.056L232 106.056L231 106.639L229.028 107.75L228.083 108.25L226.389 109.444L225.611 110.167L223.917 111.639L222.972 112.389L221.083 114.083L219.389 116L217.806 118L216.222 120L215.472 121L214.25 123L213.778 124L213.222 125L212.778 126L212.25 127L211.444 129L211.167 130L210.611 132L210.306 133L209.694 135L209.417 136L209.083 138L209 140L209 141L209 143L209 146L209 162L209 173L209 175L209 176L209.028 178L209.083 179L209.389 181L209.611 182L209.917 184L209.972 185L210.028 187L210.083 188L210.472 190L210.833 191L211.639 193L212.056 194L213.083 195.972L214.417 197.75L216.083 199.167L217.028 199.806L218 200.389L220 201.611L220.972 202.194L222.778 203.361L224.389 204.472L226.056 205.611L226.917 206.306L228.278 208.028L228.889 210L229 212L229.028 214L229.083 215L229.389 217L229.611 218L229.806 219L230.194 221L230.389 222L230.778 224L230.917 225L231 227L231.028 229L231.083 230L231.222 231L231.611 233L231.806 234L232.194 236L232.389 237L232.611 238L232.917 240L233 242L233 243L233.083 245L233.222 246L233.611 248L233.806 249L234.194 251L234.389 252L234.611 253L234.917 255L234.972 256L235 258L235.028 260L235.083 261L235.389 263L235.639 264L235.861 265L236.139 266L236.361 267L236.611 268L236.917 270L236.972 271L237 273L237.028 275L237.083 276L237.389 278L237.611 279L237.806 280L238.194 282L238.389 283L238.611 284L238.917 286L238.972 287L239 289L239.028 290L239.083 291L239.417 293L239.694 294L240.389 296L240.833 297L241.278 298L242.472 300L244.083 301.917L246 303.5L247 304.056L249 304.833L251 305.361L252 305.611L254 305.917L256 306L257 306L259 306L266 306L268 306L269 305.972L270 305.917L272 305.583L274 305L276 304.306L277 303.889L278 303.361L279 302.694L279.972 301.889L280.889 300.972L282.361 299L282.889 298L283.611 296L283.861 295L284.139 294L284.361 293L284.611 292L284.917 290L285 288L285 287L285.083 285L285.222 284L285.611 282L285.806 281L286.194 279L286.389 278L286.778 276L286.917 275L287 273L287 272L287.083 270L287.389 268L287.611 267L287.944 265L288.222 263L288.389 262L288.778 260L288.917 259L289 257L289 256L289.083 254L289.389 252L289.611 251L290 249L290.389 247L290.611 246L290.917 244L290.972 243L291 241L291.028 240L291.083 239L291.389 237L291.611 236L291.944 234L292.056 233L292.389 231L292.611 230L292.917 228L292.972 227L293 225L293.028 224L293.083 223L293.389 221L293.611 220L293.806 219L294.194 217L294.389 216L294.611 215L294.917 213L294.972 212L295 210L295 209.056L295 206M317 247L316.917 248.5L316.778 249.056L316.389 251L316.194 252L315.806 254L315.611 255L315.389 256L315.083 258L315 260L315 261L314.917 263L314.778 264L314.389 266L314.056 268L313.944 269L313.611 271L313.389 272L313.083 274L313.028 274.944L313 275.944L313 278L314.5 278.5L315.056 278.806L317 279.528L318 279.778L320 280.222L321 280.472L323 281.167L324 281.556L326 282.167L327 282.444L329 283.25L330 283.75L332 284.611L334 285.389L336 286.194L337 286.639L338 287.056L340 288.056L341 288.639L342 289.167L343 289.75L345 290.833L346 291.389L348 292.694L349 293.417L350.972 295.083L351.917 296.028L353.583 298L354.278 299L354.889 300L355.583 302L355.583 303L355.333 304L354.278 306L352.806 307.917L351.194 309.611L350.389 310.361L349.611 311.139L347.917 312.556L346.972 313.139L345 314.25L343 315.361L342 315.944L340 316.944L339 317.361L337 318.25L336 318.778L335 319.222L334 319.75L332 320.556L331 320.833L329 321.444L327 322.167L326 322.556L324 323.167L323 323.444L321 324.25L320 324.75L318 325.528L316 325.944L315 326.056L313 326.472L312 326.833L310 327.528L308 327.917L307 327.972L305 328.083L304 328.222L303 328.417L301 329L299 329.583L298 329.778L297 329.917L295 330L294 330L292 330.083L291 330.222L289 330.611L288 330.778L287 330.917L285 331.083L284 331.222L282 331.611L280 331.917L279 331.972L277 332L275 332L272 332L259 332L250 332L248 332L247 332L245 331.972L244 331.917L242 331.611L240 331.222L239 331.083L237 330.917L236 330.778L234 330.389L232 330.083L231 330.028L229 330L228 329.972L227 329.917L225 329.611L224 329.361L223 329.139L222 328.861L221 328.639L220 328.389L218 328.083L216 327.917L215 327.75L213 327.167L212 326.833L211 326.472L209 326.056L208 325.944L206 325.528L204 324.75L203 324.25L201 323.472L200 323.222L198 322.722L197 322.389L195 321.583L194 321.222L192 320.556L190 319.806L189 319.361L188 318.944L186 318L184 317L182 315.944L181 315.361L179 314.25L178 313.75L176.083 312.556L175.222 311.833L173.611 310.361L172.806 309.611L171.194 307.917L169.722 306L168.667 304L168.417 303L168.417 302L169.111 300L169.722 299L170.417 298L172.083 296.028L173.028 295.083L175 293.417L176 292.694L178 291.389L179 290.833L181 289.75L182 289.167L183 288.639L184 288.056L186 287.056L187 286.639L188 286.194L190 285.389L192 284.611L194 283.75L195 283.25L197 282.444L198 282.167L200 281.556L201 281.167L203 280.472L204 280.222L206 279.778L207 279.528L208.944 278.806L209.5 278.5L211 278L211 275.944L210.972 274L210.917 273L210.611 271L210.389 270L210.194 269L209.806 267L209.611 266L209.222 264L209.083 263L209 261L209 260L208.917 258L208.611 256L208.389 255L208.194 254L207.806 252L207.611 251.056L207.25 249.5L207 248L204.944 248L203 248.083L202 248.222L201 248.417L199 249L197 249.583L195 250L194 250.222L193 250.472L191 251.167L190 251.556L188 252.167L187 252.444L185 253.167L184 253.556L182 254.167L181 254.444L179 255.25L178 255.75L176 256.639L175 257.056L174 257.528L173 258L171 259L169 260L167 261L165 262.056L164 262.639L163 263.194L161 264.444L159 265.861L158 266.611L157 267.306L155 268.694L154 269.417L153 270.222L151 272.028L149 274L148 275L146.083 277L144.472 279L143.833 280L143.194 281L142 283L141.389 284L140.278 286L139.389 288L139.028 289L138.389 291L138.139 292L137.861 293L137.639 294L137.389 295L137.083 297L137.028 298L137 300L137 301L137 303L137 305L137.028 306L137.083 307L137.389 309L137.611 310L137.778 311L138.083 313L138.611 315L139.5 317L140.5 319L141.5 321L142.028 322L142.611 323L143.278 324L144.806 326L145.611 327L146.389 328L148.083 330L149.028 330.972L150 331.917L152 333.611L154 335.222L156 336.944L157 337.75L158 338.528L160 339.75L160.972 340.25L162.778 341.361L163.611 341.944L164.389 342.472L166.083 343.5L168 344.472L169 344.944L170 345.361L171 345.833L172 346.25L174 347.222L175 347.75L176 348.167L177 348.611L179 349.389L181 350.194L182 350.611L184 351.389L186 352.194L188 352.972L190 353.611L191 353.861L192 354.167L193 354.444L195 355.167L196 355.528L198 356L200 356.389L202 356.861L203 357.139L204 357.361L205 357.611L207 357.944L208 358.056L210 358.417L212 359L214 359.583L215 359.778L216 359.917L218 360.028L219 360.083L221 360.389L222 360.611L223 360.806L225 361.194L226 361.389L227 361.611L229 361.917L230 361.972L231 362L233 362L235 362.028L236 362.083L238 362.389L239 362.611L241 362.917L242 362.972L244 363L246 363.028L247 363.083L249 363.389L250 363.611L252 363.917L253 363.972L254 364L256 364L261 364L267 364L269 364L271 363.972L272 363.917L274 363.611L275 363.389L277 363.083L278 363.028L280 363L282 362.972L283 362.917L285 362.611L286 362.389L288 362.083L289 362.028L291 362L293 362L294 361.972L295 361.917L297 361.611L298 361.389L299 361.194L301 360.806L302 360.611L304 360.222L305 360.083L306 360.028L308 359.917L309 359.778L310 359.583L312 359L314 358.417L316 358.083L318 357.917L320 357.583L321 357.306L323 356.667L325 356L326 355.694L327 355.389L329 354.861L330 354.639L331 354.361L333 353.861L335 353.306L337 352.611L338 352.194L340 351.389L342 350.611L343 350.194L345 349.389L347 348.611L348 348.167L349 347.75L350 347.222L352 346.25L353 345.833L354 345.361L355 344.944L356.972 344L358.778 343L359.611 342.472L361.222 341.361L363.028 340.25L364 339.75L366 338.528L367 337.75L368 336.944L370 335.222L371 334.389L372 333.611L374 331.917L374.972 330.972L375.917 330L377.611 328L378.389 327L379.194 326L380.722 324L381.389 323L382.5 321L383.472 319L383.944 318L384.361 317L385.167 315L385.528 314L386 312L386.389 310L386.611 309L386.917 307L386.972 306L387 305L387 303L387 301L387 300L386.972 298L386.917 297L386.611 295L386.361 294L386.139 293L385.861 292L385.611 291L384.972 289L384.611 288L383.722 286L382.611 284L381.389 282L380.167 280L379.528 279L377.917 277L376 275L375 274L374 273L372 271.083L370 269.417L369 268.694L367 267.306L366 266.611L365 265.861L363 264.444L361 263.194L360 262.639L359 262.056L357 261L356 260.5L354 259.5L353 259L351 257.944L350 257.389L348 256.417L346 255.694L345 255.389L344 255.139L343 254.833L342 254.556L341 254.139L340 253.75L339 253.25L337 252.444L336 252.167L334 251.556L333 251.167L331 250.472L329 250L327 249.583L325 249L323 248.417L321 248L319.056 247.583L317 247M194 385L194 397L218 397L218 458L230 458L230 397L254 397L254 385L194 385M260 385L260 458L272 458L272 422L308 422L308 410L320 410L320 397L308 397L308 385L260 385M338 385L338 397L326 397L326 458L338 458L338 422L368 422L368 458L380 458L380 397L368 397L368 385L338 385M140 397L140 410L170 410L170 422L158 422L158 434L146 434L146 446L140 446L140 458L188 458L188 446L158 446L158 434L170 434L170 422L182 422L182 410L188 410L188 397L140 397z"/>
<path style="fill:#01a9f3; stroke:none;" d="M272 397L272 410L308 410L308 397L272 397M338 397L338 410L368 410L368 397L338 397z"/>
</svg>
